<svg width="138" height="58" viewBox="0 0 138 58" fill="none" xmlns="http://www.w3.org/2000/svg">
<path d="M4.56055 40.3906H6.02051V45.0879C6.02051 45.6348 5.90332 46.0954 5.66895 46.4697C5.43783 46.8441 5.11719 47.1257 4.70703 47.3145C4.30013 47.5033 3.83138 47.5977 3.30078 47.5977C2.77018 47.5977 2.29818 47.5033 1.88477 47.3145C1.47461 47.1257 1.15234 46.8441 0.917969 46.4697C0.686849 46.0954 0.571289 45.6348 0.571289 45.0879V40.3906H2.03613V45.0879C2.03613 45.4069 2.08659 45.6673 2.1875 45.8691C2.28841 46.071 2.43327 46.2191 2.62207 46.3135C2.81413 46.4079 3.04036 46.4551 3.30078 46.4551C3.56771 46.4551 3.79395 46.4079 3.97949 46.3135C4.16829 46.2191 4.31152 46.071 4.40918 45.8691C4.51009 45.6673 4.56055 45.4069 4.56055 45.0879V40.3906ZM8.54492 43.3691V47.5H7.13867V42.2168H8.46191L8.54492 43.3691ZM10.1367 42.1826L10.1123 43.4863C10.0439 43.4766 9.96094 43.4684 9.86328 43.4619C9.76888 43.4521 9.68262 43.4473 9.60449 43.4473C9.40592 43.4473 9.2334 43.4733 9.08691 43.5254C8.94368 43.5742 8.82324 43.6475 8.72559 43.7451C8.63118 43.8428 8.55957 43.9616 8.51074 44.1016C8.46517 44.2415 8.43913 44.401 8.43262 44.5801L8.14941 44.4922C8.14941 44.1504 8.18359 43.8363 8.25195 43.5498C8.32031 43.2601 8.4196 43.0078 8.5498 42.793C8.68327 42.5781 8.84603 42.4121 9.03809 42.2949C9.23014 42.1777 9.44987 42.1191 9.69727 42.1191C9.77539 42.1191 9.85514 42.1257 9.93652 42.1387C10.0179 42.1484 10.0846 42.1631 10.1367 42.1826ZM12.2852 40V47.5H10.874V40H12.2852ZM14.7803 46.3135L14.7754 47.2559C14.7754 47.6172 14.6842 47.9818 14.502 48.3496C14.3229 48.7174 14.0951 49.0186 13.8184 49.2529L13.0859 48.877C13.1673 48.7272 13.2471 48.5775 13.3252 48.4277C13.4033 48.278 13.4684 48.1136 13.5205 47.9346C13.5726 47.7555 13.5986 47.5521 13.5986 47.3242V46.3135H14.7803ZM20.6689 47.5H19.1211L19.1309 46.3574H20.6689C21.0531 46.3574 21.377 46.2712 21.6406 46.0986C21.9043 45.9229 22.1029 45.6673 22.2363 45.332C22.373 44.9967 22.4414 44.5915 22.4414 44.1162V43.7695C22.4414 43.4049 22.4023 43.0843 22.3242 42.8076C22.2493 42.5309 22.137 42.2982 21.9873 42.1094C21.8376 41.9206 21.6536 41.779 21.4355 41.6846C21.2174 41.5869 20.9668 41.5381 20.6836 41.5381H19.0918V40.3906H20.6836C21.1589 40.3906 21.5934 40.472 21.9873 40.6348C22.3844 40.7943 22.7279 41.0238 23.0176 41.3232C23.3073 41.6227 23.5303 41.9808 23.6865 42.3975C23.846 42.8109 23.9258 43.2715 23.9258 43.7793V44.1162C23.9258 44.6208 23.846 45.0814 23.6865 45.498C23.5303 45.9147 23.3073 46.2728 23.0176 46.5723C22.7311 46.8685 22.3877 47.098 21.9873 47.2607C21.5902 47.4202 21.1507 47.5 20.6689 47.5ZM19.9512 40.3906V47.5H18.4863V40.3906H19.9512ZM24.6777 44.9121V44.8096C24.6777 44.4222 24.7331 44.0658 24.8438 43.7402C24.9544 43.4115 25.1156 43.1266 25.3271 42.8857C25.5387 42.6449 25.7992 42.4577 26.1084 42.3242C26.4176 42.1875 26.7725 42.1191 27.1729 42.1191C27.5732 42.1191 27.9297 42.1875 28.2422 42.3242C28.5547 42.4577 28.8167 42.6449 29.0283 42.8857C29.2432 43.1266 29.4059 43.4115 29.5166 43.7402C29.6273 44.0658 29.6826 44.4222 29.6826 44.8096V44.9121C29.6826 45.2962 29.6273 45.6527 29.5166 45.9814C29.4059 46.307 29.2432 46.5918 29.0283 46.8359C28.8167 47.0768 28.5563 47.264 28.2471 47.3975C27.9378 47.5309 27.583 47.5977 27.1826 47.5977C26.7822 47.5977 26.4258 47.5309 26.1133 47.3975C25.804 47.264 25.542 47.0768 25.3271 46.8359C25.1156 46.5918 24.9544 46.307 24.8438 45.9814C24.7331 45.6527 24.6777 45.2962 24.6777 44.9121ZM26.084 44.8096V44.9121C26.084 45.1335 26.1035 45.3402 26.1426 45.5322C26.1816 45.7243 26.2435 45.8936 26.3281 46.04C26.416 46.1833 26.5299 46.2956 26.6699 46.377C26.8099 46.4583 26.9808 46.499 27.1826 46.499C27.3779 46.499 27.5456 46.4583 27.6855 46.377C27.8255 46.2956 27.9378 46.1833 28.0225 46.04C28.1071 45.8936 28.1689 45.7243 28.208 45.5322C28.2503 45.3402 28.2715 45.1335 28.2715 44.9121V44.8096C28.2715 44.5947 28.2503 44.3929 28.208 44.2041C28.1689 44.012 28.1055 43.8428 28.0176 43.6963C27.9329 43.5465 27.8206 43.4294 27.6807 43.3447C27.5407 43.2601 27.3714 43.2178 27.1729 43.2178C26.9743 43.2178 26.805 43.2601 26.665 43.3447C26.5283 43.4294 26.416 43.5465 26.3281 43.6963C26.2435 43.8428 26.1816 44.012 26.1426 44.2041C26.1035 44.3929 26.084 44.5947 26.084 44.8096ZM31.9531 43.3105V47.5H30.542V42.2168H31.8652L31.9531 43.3105ZM31.7578 44.6729H31.3672C31.3672 44.305 31.4111 43.9665 31.499 43.6572C31.5902 43.3447 31.722 43.0745 31.8945 42.8467C32.0703 42.6156 32.2868 42.4365 32.5439 42.3096C32.8011 42.1826 33.099 42.1191 33.4375 42.1191C33.6719 42.1191 33.8867 42.1549 34.082 42.2266C34.2773 42.2949 34.445 42.404 34.585 42.5537C34.7282 42.7002 34.8389 42.8923 34.917 43.1299C34.9951 43.3643 35.0342 43.6458 35.0342 43.9746V47.5H33.6279V44.1309C33.6279 43.89 33.5954 43.7044 33.5303 43.5742C33.4652 43.444 33.3724 43.3529 33.252 43.3008C33.1348 43.2487 32.9932 43.2227 32.8271 43.2227C32.6449 43.2227 32.4854 43.2601 32.3486 43.335C32.2152 43.4098 32.1045 43.514 32.0166 43.6475C31.9287 43.7777 31.8636 43.9307 31.8213 44.1064C31.779 44.2822 31.7578 44.471 31.7578 44.6729ZM34.9023 44.5117L34.3994 44.5752C34.3994 44.2301 34.4417 43.9095 34.5264 43.6133C34.6143 43.3171 34.7428 43.0566 34.9121 42.832C35.0846 42.6074 35.2979 42.4333 35.5518 42.3096C35.8057 42.1826 36.0986 42.1191 36.4307 42.1191C36.6846 42.1191 36.9157 42.1566 37.124 42.2314C37.3324 42.3031 37.5098 42.4186 37.6562 42.5781C37.806 42.7344 37.9199 42.9395 37.998 43.1934C38.0794 43.4473 38.1201 43.7581 38.1201 44.126V47.5H36.709V44.126C36.709 43.8818 36.6764 43.6963 36.6113 43.5693C36.5495 43.4391 36.4583 43.3496 36.3379 43.3008C36.2207 43.2487 36.0807 43.2227 35.918 43.2227C35.7487 43.2227 35.6006 43.2568 35.4736 43.3252C35.3467 43.3903 35.2409 43.4814 35.1562 43.5986C35.0716 43.7158 35.0081 43.8525 34.9658 44.0088C34.9235 44.1618 34.9023 44.3294 34.9023 44.5117ZM42.0605 46.3086V43.9551C42.0605 43.7858 42.0329 43.641 41.9775 43.5205C41.9222 43.3968 41.8359 43.3008 41.7188 43.2324C41.6048 43.1641 41.4567 43.1299 41.2744 43.1299C41.1182 43.1299 40.9831 43.1576 40.8691 43.2129C40.7552 43.265 40.6673 43.3415 40.6055 43.4424C40.5436 43.54 40.5127 43.6556 40.5127 43.7891H39.1064C39.1064 43.5645 39.1585 43.3512 39.2627 43.1494C39.3669 42.9476 39.5182 42.7702 39.7168 42.6172C39.9154 42.4609 40.1514 42.3389 40.4248 42.251C40.7015 42.1631 41.0107 42.1191 41.3525 42.1191C41.7627 42.1191 42.1273 42.1875 42.4463 42.3242C42.7653 42.4609 43.016 42.666 43.1982 42.9395C43.3838 43.2129 43.4766 43.5547 43.4766 43.9648V46.2256C43.4766 46.5153 43.4945 46.7529 43.5303 46.9385C43.5661 47.1208 43.6182 47.2803 43.6865 47.417V47.5H42.2656C42.1973 47.3568 42.1452 47.1777 42.1094 46.9629C42.0768 46.7448 42.0605 46.5267 42.0605 46.3086ZM42.2461 44.2822L42.2559 45.0781H41.4697C41.2842 45.0781 41.123 45.0993 40.9863 45.1416C40.8496 45.1839 40.7373 45.2441 40.6494 45.3223C40.5615 45.3971 40.4964 45.485 40.4541 45.5859C40.415 45.6868 40.3955 45.7975 40.3955 45.918C40.3955 46.0384 40.4232 46.1475 40.4785 46.2451C40.5339 46.3395 40.6136 46.4144 40.7178 46.4697C40.8219 46.5218 40.944 46.5479 41.084 46.5479C41.2956 46.5479 41.4795 46.5055 41.6357 46.4209C41.792 46.3363 41.9124 46.2321 41.9971 46.1084C42.085 45.9847 42.1305 45.8675 42.1338 45.7568L42.5049 46.3525C42.4528 46.486 42.3812 46.6243 42.29 46.7676C42.2021 46.9108 42.0898 47.0459 41.9531 47.1729C41.8164 47.2965 41.652 47.3991 41.46 47.4805C41.2679 47.5586 41.04 47.5977 40.7764 47.5977C40.4411 47.5977 40.1367 47.5309 39.8633 47.3975C39.5931 47.2607 39.3783 47.0736 39.2188 46.8359C39.0625 46.5951 38.9844 46.3216 38.9844 46.0156C38.9844 45.7389 39.0365 45.4932 39.1406 45.2783C39.2448 45.0635 39.3978 44.8828 39.5996 44.7363C39.8047 44.5866 40.0602 44.4743 40.3662 44.3994C40.6722 44.3213 41.027 44.2822 41.4307 44.2822H42.2461ZM46.0449 42.2168V47.5H44.6338V42.2168H46.0449ZM44.5459 40.8398C44.5459 40.6348 44.6175 40.4655 44.7607 40.332C44.904 40.1986 45.096 40.1318 45.3369 40.1318C45.5745 40.1318 45.765 40.1986 45.9082 40.332C46.0547 40.4655 46.1279 40.6348 46.1279 40.8398C46.1279 41.0449 46.0547 41.2142 45.9082 41.3477C45.765 41.4811 45.5745 41.5479 45.3369 41.5479C45.096 41.5479 44.904 41.4811 44.7607 41.3477C44.6175 41.2142 44.5459 41.0449 44.5459 40.8398ZM48.584 43.3447V47.5H47.1777V42.2168H48.4961L48.584 43.3447ZM48.3789 44.6729H47.998C47.998 44.2822 48.0485 43.9307 48.1494 43.6182C48.2503 43.3024 48.3919 43.0339 48.5742 42.8125C48.7565 42.5879 48.973 42.417 49.2236 42.2998C49.4775 42.1794 49.7607 42.1191 50.0732 42.1191C50.3206 42.1191 50.5469 42.1549 50.752 42.2266C50.957 42.2982 51.1328 42.4121 51.2793 42.5684C51.429 42.7246 51.543 42.9313 51.6211 43.1885C51.7025 43.4456 51.7432 43.7598 51.7432 44.1309V47.5H50.3271V44.126C50.3271 43.8916 50.2946 43.7093 50.2295 43.5791C50.1644 43.4489 50.0684 43.3577 49.9414 43.3057C49.8177 43.2503 49.6647 43.2227 49.4824 43.2227C49.2936 43.2227 49.1292 43.2601 48.9893 43.335C48.8525 43.4098 48.7386 43.514 48.6475 43.6475C48.5596 43.7777 48.4928 43.9307 48.4473 44.1064C48.4017 44.2822 48.3789 44.471 48.3789 44.6729ZM54.1455 46.3135L54.1406 47.2559C54.1406 47.6172 54.0495 47.9818 53.8672 48.3496C53.6882 48.7174 53.4603 49.0186 53.1836 49.2529L52.4512 48.877C52.5326 48.7272 52.6123 48.5775 52.6904 48.4277C52.7686 48.278 52.8337 48.1136 52.8857 47.9346C52.9378 47.7555 52.9639 47.5521 52.9639 47.3242V46.3135H54.1455ZM61.7773 40.3906H63.2373V45.0879C63.2373 45.6348 63.1201 46.0954 62.8857 46.4697C62.6546 46.8441 62.334 47.1257 61.9238 47.3145C61.5169 47.5033 61.0482 47.5977 60.5176 47.5977C59.987 47.5977 59.515 47.5033 59.1016 47.3145C58.6914 47.1257 58.3691 46.8441 58.1348 46.4697C57.9036 46.0954 57.7881 45.6348 57.7881 45.0879V40.3906H59.2529V45.0879C59.2529 45.4069 59.3034 45.6673 59.4043 45.8691C59.5052 46.071 59.6501 46.2191 59.8389 46.3135C60.0309 46.4079 60.2572 46.4551 60.5176 46.4551C60.7845 46.4551 61.0107 46.4079 61.1963 46.3135C61.3851 46.2191 61.5283 46.071 61.626 45.8691C61.7269 45.6673 61.7773 45.4069 61.7773 45.0879V40.3906ZM67.2119 46.04C67.2119 45.9391 67.1826 45.848 67.124 45.7666C67.0654 45.6852 66.9564 45.6104 66.7969 45.542C66.6406 45.4704 66.4144 45.4053 66.1182 45.3467C65.8512 45.2881 65.6022 45.2148 65.3711 45.127C65.1432 45.0358 64.9447 44.9268 64.7754 44.7998C64.6094 44.6729 64.4792 44.5231 64.3848 44.3506C64.2904 44.1748 64.2432 43.9746 64.2432 43.75C64.2432 43.5286 64.2904 43.3203 64.3848 43.125C64.4824 42.9297 64.6208 42.7572 64.7998 42.6074C64.9821 42.4544 65.2035 42.3356 65.4639 42.251C65.7275 42.1631 66.0238 42.1191 66.3525 42.1191C66.8115 42.1191 67.2054 42.1924 67.5342 42.3389C67.8662 42.4854 68.1201 42.6872 68.2959 42.9443C68.4749 43.1982 68.5645 43.488 68.5645 43.8135H67.1582C67.1582 43.6768 67.1289 43.5547 67.0703 43.4473C67.015 43.3366 66.9271 43.2503 66.8066 43.1885C66.6895 43.1234 66.5365 43.0908 66.3477 43.0908C66.1914 43.0908 66.0563 43.1185 65.9424 43.1738C65.8285 43.2259 65.7406 43.2975 65.6787 43.3887C65.6201 43.4766 65.5908 43.5742 65.5908 43.6816C65.5908 43.763 65.6071 43.8363 65.6396 43.9014C65.6755 43.9632 65.7324 44.0202 65.8105 44.0723C65.8887 44.1243 65.9896 44.1732 66.1133 44.2188C66.2402 44.2611 66.3965 44.3001 66.582 44.3359C66.9629 44.4141 67.3031 44.5166 67.6025 44.6436C67.902 44.7673 68.1396 44.9365 68.3154 45.1514C68.4912 45.363 68.5791 45.6413 68.5791 45.9863C68.5791 46.2207 68.527 46.4355 68.4229 46.6309C68.3187 46.8262 68.1689 46.9971 67.9736 47.1436C67.7783 47.2868 67.5439 47.3991 67.2705 47.4805C67.0003 47.5586 66.696 47.5977 66.3574 47.5977C65.8659 47.5977 65.4492 47.5098 65.1074 47.334C64.7689 47.1582 64.5117 46.9352 64.3359 46.665C64.1634 46.3916 64.0771 46.1117 64.0771 45.8252H65.4102C65.4167 46.0173 65.4655 46.1719 65.5566 46.2891C65.651 46.4062 65.7699 46.4909 65.9131 46.543C66.0596 46.5951 66.2174 46.6211 66.3867 46.6211C66.569 46.6211 66.7204 46.5967 66.8408 46.5479C66.9613 46.4958 67.0524 46.4274 67.1143 46.3428C67.1794 46.2549 67.2119 46.154 67.2119 46.04ZM71.9238 47.5977C71.5137 47.5977 71.1458 47.5326 70.8203 47.4023C70.4948 47.2689 70.2181 47.085 69.9902 46.8506C69.7656 46.6162 69.5931 46.3444 69.4727 46.0352C69.3522 45.7227 69.292 45.3906 69.292 45.0391V44.8438C69.292 44.4434 69.349 44.0771 69.4629 43.7451C69.5768 43.4131 69.7396 43.125 69.9512 42.8809C70.166 42.6367 70.4264 42.4495 70.7324 42.3193C71.0384 42.1859 71.3835 42.1191 71.7676 42.1191C72.1419 42.1191 72.474 42.181 72.7637 42.3047C73.0534 42.4284 73.2959 42.6042 73.4912 42.832C73.6898 43.0599 73.8395 43.3333 73.9404 43.6523C74.0413 43.9681 74.0918 44.3197 74.0918 44.707V45.293H69.8926V44.3555H72.71V44.248C72.71 44.0527 72.6742 43.8786 72.6025 43.7256C72.5342 43.5693 72.43 43.4456 72.29 43.3545C72.1501 43.2633 71.971 43.2178 71.7529 43.2178C71.5674 43.2178 71.4079 43.2585 71.2744 43.3398C71.141 43.4212 71.0319 43.5352 70.9473 43.6816C70.8659 43.8281 70.804 44.0007 70.7617 44.1992C70.7227 44.3945 70.7031 44.6094 70.7031 44.8438V45.0391C70.7031 45.2507 70.7324 45.446 70.791 45.625C70.8529 45.804 70.9391 45.9587 71.0498 46.0889C71.1637 46.2191 71.3005 46.32 71.46 46.3916C71.6227 46.4632 71.8066 46.499 72.0117 46.499C72.2656 46.499 72.5016 46.4502 72.7197 46.3525C72.9411 46.2516 73.1315 46.1003 73.291 45.8984L73.9746 46.6406C73.8639 46.8001 73.7126 46.9531 73.5205 47.0996C73.3317 47.2461 73.1038 47.3665 72.8369 47.4609C72.57 47.5521 72.2656 47.5977 71.9238 47.5977ZM76.2988 43.3691V47.5H74.8926V42.2168H76.2158L76.2988 43.3691ZM77.8906 42.1826L77.8662 43.4863C77.7979 43.4766 77.7148 43.4684 77.6172 43.4619C77.5228 43.4521 77.4365 43.4473 77.3584 43.4473C77.1598 43.4473 76.9873 43.4733 76.8408 43.5254C76.6976 43.5742 76.5771 43.6475 76.4795 43.7451C76.3851 43.8428 76.3135 43.9616 76.2646 44.1016C76.2191 44.2415 76.193 44.401 76.1865 44.5801L75.9033 44.4922C75.9033 44.1504 75.9375 43.8363 76.0059 43.5498C76.0742 43.2601 76.1735 43.0078 76.3037 42.793C76.4372 42.5781 76.5999 42.4121 76.792 42.2949C76.984 42.1777 77.2038 42.1191 77.4512 42.1191C77.5293 42.1191 77.609 42.1257 77.6904 42.1387C77.7718 42.1484 77.8385 42.1631 77.8906 42.1826ZM79.1162 46.3135L79.1113 47.2559C79.1113 47.6172 79.0202 47.9818 78.8379 48.3496C78.6589 48.7174 78.431 49.0186 78.1543 49.2529L77.4219 48.877C77.5033 48.7272 77.583 48.5775 77.6611 48.4277C77.7393 48.278 77.8044 48.1136 77.8564 47.9346C77.9085 47.7555 77.9346 47.5521 77.9346 47.3242V46.3135H79.1162ZM85.5908 44.9658H83.7793V43.8232H85.5908C85.8708 43.8232 86.0986 43.7777 86.2744 43.6865C86.4502 43.5921 86.5788 43.4619 86.6602 43.2959C86.7415 43.1299 86.7822 42.9427 86.7822 42.7344C86.7822 42.5228 86.7415 42.3258 86.6602 42.1436C86.5788 41.9613 86.4502 41.8148 86.2744 41.7041C86.0986 41.5934 85.8708 41.5381 85.5908 41.5381H84.2871V47.5H82.8223V40.3906H85.5908C86.1475 40.3906 86.6243 40.4915 87.0215 40.6934C87.4219 40.8919 87.7279 41.167 87.9395 41.5186C88.151 41.8701 88.2568 42.2721 88.2568 42.7246C88.2568 43.1836 88.151 43.5807 87.9395 43.916C87.7279 44.2513 87.4219 44.5101 87.0215 44.6924C86.6243 44.8747 86.1475 44.9658 85.5908 44.9658ZM91.9727 46.3086V43.9551C91.9727 43.7858 91.945 43.641 91.8896 43.5205C91.8343 43.3968 91.748 43.3008 91.6309 43.2324C91.5169 43.1641 91.3688 43.1299 91.1865 43.1299C91.0303 43.1299 90.8952 43.1576 90.7812 43.2129C90.6673 43.265 90.5794 43.3415 90.5176 43.4424C90.4557 43.54 90.4248 43.6556 90.4248 43.7891H89.0186C89.0186 43.5645 89.0706 43.3512 89.1748 43.1494C89.279 42.9476 89.4303 42.7702 89.6289 42.6172C89.8275 42.4609 90.0635 42.3389 90.3369 42.251C90.6136 42.1631 90.9229 42.1191 91.2646 42.1191C91.6748 42.1191 92.0394 42.1875 92.3584 42.3242C92.6774 42.4609 92.9281 42.666 93.1104 42.9395C93.2959 43.2129 93.3887 43.5547 93.3887 43.9648V46.2256C93.3887 46.5153 93.4066 46.7529 93.4424 46.9385C93.4782 47.1208 93.5303 47.2803 93.5986 47.417V47.5H92.1777C92.1094 47.3568 92.0573 47.1777 92.0215 46.9629C91.9889 46.7448 91.9727 46.5267 91.9727 46.3086ZM92.1582 44.2822L92.168 45.0781H91.3818C91.1963 45.0781 91.0352 45.0993 90.8984 45.1416C90.7617 45.1839 90.6494 45.2441 90.5615 45.3223C90.4736 45.3971 90.4085 45.485 90.3662 45.5859C90.3271 45.6868 90.3076 45.7975 90.3076 45.918C90.3076 46.0384 90.3353 46.1475 90.3906 46.2451C90.446 46.3395 90.5257 46.4144 90.6299 46.4697C90.734 46.5218 90.8561 46.5479 90.9961 46.5479C91.2077 46.5479 91.3916 46.5055 91.5479 46.4209C91.7041 46.3363 91.8245 46.2321 91.9092 46.1084C91.9971 45.9847 92.0426 45.8675 92.0459 45.7568L92.417 46.3525C92.3649 46.486 92.2933 46.6243 92.2021 46.7676C92.1143 46.9108 92.002 47.0459 91.8652 47.1729C91.7285 47.2965 91.5641 47.3991 91.3721 47.4805C91.18 47.5586 90.9521 47.5977 90.6885 47.5977C90.3532 47.5977 90.0488 47.5309 89.7754 47.3975C89.5052 47.2607 89.2904 47.0736 89.1309 46.8359C88.9746 46.5951 88.8965 46.3216 88.8965 46.0156C88.8965 45.7389 88.9486 45.4932 89.0527 45.2783C89.1569 45.0635 89.3099 44.8828 89.5117 44.7363C89.7168 44.5866 89.9723 44.4743 90.2783 44.3994C90.5843 44.3213 90.9391 44.2822 91.3428 44.2822H92.1582ZM97.3291 46.04C97.3291 45.9391 97.2998 45.848 97.2412 45.7666C97.1826 45.6852 97.0736 45.6104 96.9141 45.542C96.7578 45.4704 96.5316 45.4053 96.2354 45.3467C95.9684 45.2881 95.7194 45.2148 95.4883 45.127C95.2604 45.0358 95.0618 44.9268 94.8926 44.7998C94.7266 44.6729 94.5964 44.5231 94.502 44.3506C94.4076 44.1748 94.3604 43.9746 94.3604 43.75C94.3604 43.5286 94.4076 43.3203 94.502 43.125C94.5996 42.9297 94.738 42.7572 94.917 42.6074C95.0993 42.4544 95.3206 42.3356 95.5811 42.251C95.8447 42.1631 96.141 42.1191 96.4697 42.1191C96.9287 42.1191 97.3226 42.1924 97.6514 42.3389C97.9834 42.4854 98.2373 42.6872 98.4131 42.9443C98.5921 43.1982 98.6816 43.488 98.6816 43.8135H97.2754C97.2754 43.6768 97.2461 43.5547 97.1875 43.4473C97.1322 43.3366 97.0443 43.2503 96.9238 43.1885C96.8066 43.1234 96.6536 43.0908 96.4648 43.0908C96.3086 43.0908 96.1735 43.1185 96.0596 43.1738C95.9456 43.2259 95.8577 43.2975 95.7959 43.3887C95.7373 43.4766 95.708 43.5742 95.708 43.6816C95.708 43.763 95.7243 43.8363 95.7568 43.9014C95.7926 43.9632 95.8496 44.0202 95.9277 44.0723C96.0059 44.1243 96.1068 44.1732 96.2305 44.2188C96.3574 44.2611 96.5137 44.3001 96.6992 44.3359C97.0801 44.4141 97.4202 44.5166 97.7197 44.6436C98.0192 44.7673 98.2568 44.9365 98.4326 45.1514C98.6084 45.363 98.6963 45.6413 98.6963 45.9863C98.6963 46.2207 98.6442 46.4355 98.54 46.6309C98.4359 46.8262 98.2861 46.9971 98.0908 47.1436C97.8955 47.2868 97.6611 47.3991 97.3877 47.4805C97.1175 47.5586 96.8132 47.5977 96.4746 47.5977C95.9831 47.5977 95.5664 47.5098 95.2246 47.334C94.8861 47.1582 94.6289 46.9352 94.4531 46.665C94.2806 46.3916 94.1943 46.1117 94.1943 45.8252H95.5273C95.5339 46.0173 95.5827 46.1719 95.6738 46.2891C95.7682 46.4062 95.887 46.4909 96.0303 46.543C96.1768 46.5951 96.3346 46.6211 96.5039 46.6211C96.6862 46.6211 96.8376 46.5967 96.958 46.5479C97.0785 46.4958 97.1696 46.4274 97.2314 46.3428C97.2965 46.2549 97.3291 46.154 97.3291 46.04ZM102.466 46.04C102.466 45.9391 102.437 45.848 102.378 45.7666C102.319 45.6852 102.21 45.6104 102.051 45.542C101.895 45.4704 101.668 45.4053 101.372 45.3467C101.105 45.2881 100.856 45.2148 100.625 45.127C100.397 45.0358 100.199 44.9268 100.029 44.7998C99.8633 44.6729 99.7331 44.5231 99.6387 44.3506C99.5443 44.1748 99.4971 43.9746 99.4971 43.75C99.4971 43.5286 99.5443 43.3203 99.6387 43.125C99.7363 42.9297 99.8747 42.7572 100.054 42.6074C100.236 42.4544 100.457 42.3356 100.718 42.251C100.981 42.1631 101.278 42.1191 101.606 42.1191C102.065 42.1191 102.459 42.1924 102.788 42.3389C103.12 42.4854 103.374 42.6872 103.55 42.9443C103.729 43.1982 103.818 43.488 103.818 43.8135H102.412C102.412 43.6768 102.383 43.5547 102.324 43.4473C102.269 43.3366 102.181 43.2503 102.061 43.1885C101.943 43.1234 101.79 43.0908 101.602 43.0908C101.445 43.0908 101.31 43.1185 101.196 43.1738C101.082 43.2259 100.994 43.2975 100.933 43.3887C100.874 43.4766 100.845 43.5742 100.845 43.6816C100.845 43.763 100.861 43.8363 100.894 43.9014C100.929 43.9632 100.986 44.0202 101.064 44.0723C101.143 44.1243 101.243 44.1732 101.367 44.2188C101.494 44.2611 101.65 44.3001 101.836 44.3359C102.217 44.4141 102.557 44.5166 102.856 44.6436C103.156 44.7673 103.394 44.9365 103.569 45.1514C103.745 45.363 103.833 45.6413 103.833 45.9863C103.833 46.2207 103.781 46.4355 103.677 46.6309C103.573 46.8262 103.423 46.9971 103.228 47.1436C103.032 47.2868 102.798 47.3991 102.524 47.4805C102.254 47.5586 101.95 47.5977 101.611 47.5977C101.12 47.5977 100.703 47.5098 100.361 47.334C100.023 47.1582 99.7656 46.9352 99.5898 46.665C99.4173 46.3916 99.3311 46.1117 99.3311 45.8252H100.664C100.671 46.0173 100.719 46.1719 100.811 46.2891C100.905 46.4062 101.024 46.4909 101.167 46.543C101.313 46.5951 101.471 46.6211 101.641 46.6211C101.823 46.6211 101.974 46.5967 102.095 46.5479C102.215 46.4958 102.306 46.4274 102.368 46.3428C102.433 46.2549 102.466 46.154 102.466 46.04ZM106.255 46.1328L107.354 42.2168H108.247L107.959 43.7549L106.86 47.5H106.113L106.255 46.1328ZM105.698 42.2168L106.484 46.1279L106.558 47.5H105.679L104.341 42.2168H105.698ZM109.253 46.0645L110.02 42.2168H111.382L110.044 47.5H109.17L109.253 46.0645ZM108.369 42.2168L109.463 46.1035L109.614 47.5H108.862L107.764 43.7598L107.485 42.2168H108.369ZM111.865 44.9121V44.8096C111.865 44.4222 111.921 44.0658 112.031 43.7402C112.142 43.4115 112.303 43.1266 112.515 42.8857C112.726 42.6449 112.987 42.4577 113.296 42.3242C113.605 42.1875 113.96 42.1191 114.36 42.1191C114.761 42.1191 115.117 42.1875 115.43 42.3242C115.742 42.4577 116.004 42.6449 116.216 42.8857C116.431 43.1266 116.593 43.4115 116.704 43.7402C116.815 44.0658 116.87 44.4222 116.87 44.8096V44.9121C116.87 45.2962 116.815 45.6527 116.704 45.9814C116.593 46.307 116.431 46.5918 116.216 46.8359C116.004 47.0768 115.744 47.264 115.435 47.3975C115.125 47.5309 114.771 47.5977 114.37 47.5977C113.97 47.5977 113.613 47.5309 113.301 47.3975C112.992 47.264 112.729 47.0768 112.515 46.8359C112.303 46.5918 112.142 46.307 112.031 45.9814C111.921 45.6527 111.865 45.2962 111.865 44.9121ZM113.271 44.8096V44.9121C113.271 45.1335 113.291 45.3402 113.33 45.5322C113.369 45.7243 113.431 45.8936 113.516 46.04C113.604 46.1833 113.717 46.2956 113.857 46.377C113.997 46.4583 114.168 46.499 114.37 46.499C114.565 46.499 114.733 46.4583 114.873 46.377C115.013 46.2956 115.125 46.1833 115.21 46.04C115.295 45.8936 115.356 45.7243 115.396 45.5322C115.438 45.3402 115.459 45.1335 115.459 44.9121V44.8096C115.459 44.5947 115.438 44.3929 115.396 44.2041C115.356 44.012 115.293 43.8428 115.205 43.6963C115.12 43.5465 115.008 43.4294 114.868 43.3447C114.728 43.2601 114.559 43.2178 114.36 43.2178C114.162 43.2178 113.993 43.2601 113.853 43.3447C113.716 43.4294 113.604 43.5465 113.516 43.6963C113.431 43.8428 113.369 44.012 113.33 44.2041C113.291 44.3929 113.271 44.5947 113.271 44.8096ZM119.141 43.3691V47.5H117.734V42.2168H119.058L119.141 43.3691ZM120.732 42.1826L120.708 43.4863C120.64 43.4766 120.557 43.4684 120.459 43.4619C120.365 43.4521 120.278 43.4473 120.2 43.4473C120.002 43.4473 119.829 43.4733 119.683 43.5254C119.539 43.5742 119.419 43.6475 119.321 43.7451C119.227 43.8428 119.155 43.9616 119.106 44.1016C119.061 44.2415 119.035 44.401 119.028 44.5801L118.745 44.4922C118.745 44.1504 118.779 43.8363 118.848 43.5498C118.916 43.2601 119.015 43.0078 119.146 42.793C119.279 42.5781 119.442 42.4121 119.634 42.2949C119.826 42.1777 120.046 42.1191 120.293 42.1191C120.371 42.1191 120.451 42.1257 120.532 42.1387C120.614 42.1484 120.68 42.1631 120.732 42.1826ZM124.419 46.3477V40H125.835V47.5H124.561L124.419 46.3477ZM121.079 44.9219V44.8193C121.079 44.4157 121.125 44.0495 121.216 43.7207C121.307 43.3887 121.44 43.1038 121.616 42.8662C121.792 42.6286 122.008 42.4447 122.266 42.3145C122.523 42.1842 122.816 42.1191 123.145 42.1191C123.454 42.1191 123.724 42.1842 123.955 42.3145C124.189 42.4447 124.388 42.6302 124.551 42.8711C124.717 43.1087 124.85 43.3903 124.951 43.7158C125.052 44.0381 125.125 44.3913 125.171 44.7754V45C125.125 45.3678 125.052 45.7096 124.951 46.0254C124.85 46.3411 124.717 46.6178 124.551 46.8555C124.388 47.0898 124.189 47.2721 123.955 47.4023C123.721 47.5326 123.447 47.5977 123.135 47.5977C122.806 47.5977 122.513 47.5309 122.256 47.3975C122.002 47.264 121.787 47.0768 121.611 46.8359C121.439 46.5951 121.307 46.3118 121.216 45.9863C121.125 45.6608 121.079 45.306 121.079 44.9219ZM122.485 44.8193V44.9219C122.485 45.14 122.502 45.3434 122.534 45.5322C122.57 45.721 122.627 45.8887 122.705 46.0352C122.786 46.1784 122.891 46.2907 123.018 46.3721C123.148 46.4502 123.306 46.4893 123.491 46.4893C123.732 46.4893 123.931 46.4355 124.087 46.3281C124.243 46.2174 124.362 46.0661 124.443 45.874C124.528 45.682 124.577 45.4606 124.59 45.21V44.5703C124.58 44.3652 124.551 44.1813 124.502 44.0186C124.456 43.8525 124.388 43.7109 124.297 43.5938C124.209 43.4766 124.098 43.3854 123.965 43.3203C123.835 43.2552 123.68 43.2227 123.501 43.2227C123.319 43.2227 123.162 43.265 123.032 43.3496C122.902 43.431 122.796 43.5433 122.715 43.6865C122.637 43.8298 122.578 43.999 122.539 44.1943C122.503 44.3864 122.485 44.5947 122.485 44.8193Z" fill="white"/>
<path d="M17.0391 15.4375V32.5H13.5234V15.4375H17.0391ZM27.2578 15.4375L20.4961 23.8633L16.5938 28.0586L15.9609 24.7305L18.5977 21.1211L22.9453 15.4375H27.2578ZM23.2617 32.5L18.2344 24.6133L20.8359 22.4336L27.4219 32.5H23.2617ZM34.1016 32.7344C33.1172 32.7344 32.2344 32.5781 31.4531 32.2656C30.6719 31.9453 30.0078 31.5039 29.4609 30.9414C28.9219 30.3789 28.5078 29.7266 28.2188 28.9844C27.9297 28.2344 27.7852 27.4375 27.7852 26.5938V26.125C27.7852 25.1641 27.9219 24.2852 28.1953 23.4883C28.4688 22.6914 28.8594 22 29.3672 21.4141C29.8828 20.8281 30.5078 20.3789 31.2422 20.0664C31.9766 19.7461 32.8047 19.5859 33.7266 19.5859C34.625 19.5859 35.4219 19.7344 36.1172 20.0312C36.8125 20.3281 37.3945 20.75 37.8633 21.2969C38.3398 21.8438 38.6992 22.5 38.9414 23.2656C39.1836 24.0234 39.3047 24.8672 39.3047 25.7969V27.2031H29.2266V24.9531H35.9883V24.6953C35.9883 24.2266 35.9023 23.8086 35.7305 23.4414C35.5664 23.0664 35.3164 22.7695 34.9805 22.5508C34.6445 22.332 34.2148 22.2227 33.6914 22.2227C33.2461 22.2227 32.8633 22.3203 32.543 22.5156C32.2227 22.7109 31.9609 22.9844 31.7578 23.3359C31.5625 23.6875 31.4141 24.1016 31.3125 24.5781C31.2188 25.0469 31.1719 25.5625 31.1719 26.125V26.5938C31.1719 27.1016 31.2422 27.5703 31.3828 28C31.5312 28.4297 31.7383 28.8008 32.0039 29.1133C32.2773 29.4258 32.6055 29.668 32.9883 29.8398C33.3789 30.0117 33.8203 30.0977 34.3125 30.0977C34.9219 30.0977 35.4883 29.9805 36.0117 29.7461C36.543 29.5039 37 29.1406 37.3828 28.6562L39.0234 30.4375C38.7578 30.8203 38.3945 31.1875 37.9336 31.5391C37.4805 31.8906 36.9336 32.1797 36.293 32.4062C35.6523 32.625 34.9219 32.7344 34.1016 32.7344ZM44.8242 31.0703L48.1875 19.8203H51.8086L46.7109 34.4102C46.6016 34.7305 46.4531 35.0742 46.2656 35.4414C46.0859 35.8086 45.8398 36.1562 45.5273 36.4844C45.2227 36.8203 44.8359 37.0938 44.3672 37.3047C43.9062 37.5156 43.3398 37.6211 42.668 37.6211C42.3477 37.6211 42.0859 37.6016 41.8828 37.5625C41.6797 37.5234 41.4375 37.4688 41.1562 37.3984V34.9258C41.2422 34.9258 41.332 34.9258 41.4258 34.9258C41.5195 34.9336 41.6094 34.9375 41.6953 34.9375C42.1406 34.9375 42.5039 34.8867 42.7852 34.7852C43.0664 34.6836 43.293 34.5273 43.4648 34.3164C43.6367 34.1133 43.7734 33.8477 43.875 33.5195L44.8242 31.0703ZM43.418 19.8203L46.1719 29.0078L46.6523 32.582L44.3555 32.8281L39.7969 19.8203H43.418ZM56.8828 15.4375V32.5H53.3672V15.4375H56.8828ZM63.6797 22.7266V25.4688H55.9219V22.7266H63.6797ZM64.5 15.4375V18.1914H55.9219V15.4375H64.5ZM69.8906 19.8203V32.5H66.5039V19.8203H69.8906ZM66.293 16.5156C66.293 16.0234 66.4648 15.6172 66.8086 15.2969C67.1523 14.9766 67.6133 14.8164 68.1914 14.8164C68.7617 14.8164 69.2188 14.9766 69.5625 15.2969C69.9141 15.6172 70.0898 16.0234 70.0898 16.5156C70.0898 17.0078 69.9141 17.4141 69.5625 17.7344C69.2188 18.0547 68.7617 18.2148 68.1914 18.2148C67.6133 18.2148 67.1523 18.0547 66.8086 17.7344C66.4648 17.4141 66.293 17.0078 66.293 16.5156ZM75.9844 22.5273V32.5H72.6094V19.8203H75.7734L75.9844 22.5273ZM75.4922 25.7148H74.5781C74.5781 24.7773 74.6992 23.9336 74.9414 23.1836C75.1836 22.4258 75.5234 21.7812 75.9609 21.25C76.3984 20.7109 76.918 20.3008 77.5195 20.0195C78.1289 19.7305 78.8086 19.5859 79.5586 19.5859C80.1523 19.5859 80.6953 19.6719 81.1875 19.8438C81.6797 20.0156 82.1016 20.2891 82.4531 20.6641C82.8125 21.0391 83.0859 21.5352 83.2734 22.1523C83.4688 22.7695 83.5664 23.5234 83.5664 24.4141V32.5H80.168V24.4023C80.168 23.8398 80.0898 23.4023 79.9336 23.0898C79.7773 22.7773 79.5469 22.5586 79.2422 22.4336C78.9453 22.3008 78.5781 22.2344 78.1406 22.2344C77.6875 22.2344 77.293 22.3242 76.957 22.5039C76.6289 22.6836 76.3555 22.9336 76.1367 23.2539C75.9258 23.5664 75.7656 23.9336 75.6562 24.3555C75.5469 24.7773 75.4922 25.2305 75.4922 25.7148ZM93.6211 29.7344V14.5H97.0195V32.5H93.9609L93.6211 29.7344ZM85.6055 26.3125V26.0664C85.6055 25.0977 85.7148 24.2188 85.9336 23.4297C86.1523 22.6328 86.4727 21.9492 86.8945 21.3789C87.3164 20.8086 87.8359 20.3672 88.4531 20.0547C89.0703 19.7422 89.7734 19.5859 90.5625 19.5859C91.3047 19.5859 91.9531 19.7422 92.5078 20.0547C93.0703 20.3672 93.5469 20.8125 93.9375 21.3906C94.3359 21.9609 94.6562 22.6367 94.8984 23.418C95.1406 24.1914 95.3164 25.0391 95.4258 25.9609V26.5C95.3164 27.3828 95.1406 28.2031 94.8984 28.9609C94.6562 29.7188 94.3359 30.3828 93.9375 30.9531C93.5469 31.5156 93.0703 31.9531 92.5078 32.2656C91.9453 32.5781 91.2891 32.7344 90.5391 32.7344C89.75 32.7344 89.0469 32.5742 88.4297 32.2539C87.8203 31.9336 87.3047 31.4844 86.8828 30.9062C86.4688 30.3281 86.1523 29.6484 85.9336 28.8672C85.7148 28.0859 85.6055 27.2344 85.6055 26.3125ZM88.9805 26.0664V26.3125C88.9805 26.8359 89.0195 27.3242 89.0977 27.7773C89.1836 28.2305 89.3203 28.6328 89.5078 28.9844C89.7031 29.3281 89.9531 29.5977 90.2578 29.793C90.5703 29.9805 90.9492 30.0742 91.3945 30.0742C91.9727 30.0742 92.4492 29.9453 92.8242 29.6875C93.1992 29.4219 93.4844 29.0586 93.6797 28.5977C93.8828 28.1367 94 27.6055 94.0312 27.0039V25.4688C94.0078 24.9766 93.9375 24.5352 93.8203 24.1445C93.7109 23.7461 93.5469 23.4062 93.3281 23.125C93.1172 22.8438 92.8516 22.625 92.5312 22.4688C92.2188 22.3125 91.8477 22.2344 91.418 22.2344C90.9805 22.2344 90.6055 22.3359 90.293 22.5391C89.9805 22.7344 89.7266 23.0039 89.5312 23.3477C89.3438 23.6914 89.2031 24.0977 89.1094 24.5664C89.0234 25.0273 88.9805 25.5273 88.9805 26.0664ZM105.492 32.7344C104.508 32.7344 103.625 32.5781 102.844 32.2656C102.062 31.9453 101.398 31.5039 100.852 30.9414C100.312 30.3789 99.8984 29.7266 99.6094 28.9844C99.3203 28.2344 99.1758 27.4375 99.1758 26.5938V26.125C99.1758 25.1641 99.3125 24.2852 99.5859 23.4883C99.8594 22.6914 100.25 22 100.758 21.4141C101.273 20.8281 101.898 20.3789 102.633 20.0664C103.367 19.7461 104.195 19.5859 105.117 19.5859C106.016 19.5859 106.812 19.7344 107.508 20.0312C108.203 20.3281 108.785 20.75 109.254 21.2969C109.73 21.8438 110.09 22.5 110.332 23.2656C110.574 24.0234 110.695 24.8672 110.695 25.7969V27.2031H100.617V24.9531H107.379V24.6953C107.379 24.2266 107.293 23.8086 107.121 23.4414C106.957 23.0664 106.707 22.7695 106.371 22.5508C106.035 22.332 105.605 22.2227 105.082 22.2227C104.637 22.2227 104.254 22.3203 103.934 22.5156C103.613 22.7109 103.352 22.9844 103.148 23.3359C102.953 23.6875 102.805 24.1016 102.703 24.5781C102.609 25.0469 102.562 25.5625 102.562 26.125V26.5938C102.562 27.1016 102.633 27.5703 102.773 28C102.922 28.4297 103.129 28.8008 103.395 29.1133C103.668 29.4258 103.996 29.668 104.379 29.8398C104.77 30.0117 105.211 30.0977 105.703 30.0977C106.312 30.0977 106.879 29.9805 107.402 29.7461C107.934 29.5039 108.391 29.1406 108.773 28.6562L110.414 30.4375C110.148 30.8203 109.785 31.1875 109.324 31.5391C108.871 31.8906 108.324 32.1797 107.684 32.4062C107.043 32.625 106.312 32.7344 105.492 32.7344ZM115.992 22.5859V32.5H112.617V19.8203H115.793L115.992 22.5859ZM119.812 19.7383L119.754 22.8672C119.59 22.8438 119.391 22.8242 119.156 22.8086C118.93 22.7852 118.723 22.7734 118.535 22.7734C118.059 22.7734 117.645 22.8359 117.293 22.9609C116.949 23.0781 116.66 23.2539 116.426 23.4883C116.199 23.7227 116.027 24.0078 115.91 24.3438C115.801 24.6797 115.738 25.0625 115.723 25.4922L115.043 25.2812C115.043 24.4609 115.125 23.707 115.289 23.0195C115.453 22.3242 115.691 21.7188 116.004 21.2031C116.324 20.6875 116.715 20.2891 117.176 20.0078C117.637 19.7266 118.164 19.5859 118.758 19.5859C118.945 19.5859 119.137 19.6016 119.332 19.6328C119.527 19.6562 119.688 19.6914 119.812 19.7383Z" fill="white"/>
<path d="M68.5 10V0.5H137V57.5H68.5V51.5" stroke="white"/>
</svg>
